<svg id="Layer_1" data-name="Layer 1" xmlns="http://www.w3.org/2000/svg" viewBox="0 0 512 512"><title>sound</title><path d="M2.46,300.68c0-.1-9.09,8,7.74,5.29l13.89.57,10.72,4.16,9.54-3.35c.62-.12-1.2-3.48-.42-27,0-11.65,2-28.6,8-50.43,8.42-22.18,18.65-45.68,56.13-46.5.69-2.27,14.54,5,54.65-11.77,38.43-24.69,49.58-59.46,83.8-83.16,0,.49,7.2-6.16,19.34-12.3l4.49-1.62,2.36-.93,1.21-.5.32-.13c-14.46-7.24,32.45,16.14-32.37-16.23v.08L242,57l.19.66c.94,3.57,2.54,7.14,2.95,12,1.48,9.27,1.36,21.34-.37,36.41-9.39,65.74-1.14,154.32,4.66,238.75,1.21,21,1.18,41.52-.82,61.1-1.36,9.64-2.31,19.42-5.1,28.28l-1.72,6.8-.84,3.38-.2.84c-37.79,6.36,51.44-8.37,42.16-7l-.22-.24-.44-.49-1.72-1.94a100.91,100.91,0,0,0-15.11-14.44c-24-16.58-41.1-20.16-53-30.6-15.06-11.36-29.13-23.93-45.31-34.84-14.91-10.1-33-22.08-55-24-20.72-1.7-36,3.85-47.13,6.63-12,5.39-16.29-.5-17.23,8,1.87-1.23,3.85-4.07,1.45-5,4.81,4.14-17.12,5.6,38.29-7.1,60.47-12.34,103.39,49.55,141.5,67.91,10.27,5.4,25.85,11.13,39.89,23.08a70.1,70.1,0,0,1,9.48,9.19l2.19,2.44,1.08,1.2.55.61.12.15c36.54-6-49.6,8.31-40.71,6.78l.05-.27,1-4.29,4.22-16.83a342,342,0,0,0,3.65-66.45c-1.73-41.07-5-73.11-4.46-79.71-.12-.1,2.42,25.63,5.22,62.59a450.26,450.26,0,0,1,.64,62.07c-1.51,10.84-2.22,22.45-5.49,33.28l-2,8.37-.24,1-.12.54-.07.25,0,.12c16.21-2.63-36.32,6.14,36.34-5.89l-2.07-2.27L274,433.59a95.67,95.67,0,0,0-19.51-15.38c-52.46-18.8-77.22-61-131-79-56.45-4.68-79.76,16.06-77.62,9.68-3,2.42,7.61-.29,53.44-9.17,52.07-2,86.11,47.93,125.88,68.75,10.27,5.49,23.66,10.4,36.09,20.33,2.86,2.59,6.16,4.86,8.57,7.79l3.79,4.19,1.9,2.12.47.52c-12.15,2.05,27.35-4.36-27.2,4.59l0-.13.07-.25.27-1L253.51,430a296.28,296.28,0,0,0,5.84-64.51c-.4-40-2.9-71.09-1.45-79.9-.13,0,2.29,22.55,4.85,56.18a460,460,0,0,1,1,57.5,270,270,0,0,1-4.06,32.08l-3.85,16.24-.49,2.05,0,.27,0,.12c-14,2.32,19-3,15.55-2.51l-.42-.45-.84-.93-3.38-3.62-7.34-6.77C211,413.19,179.18,383.85,142,361.18c-38.56-23.72-71.83-1-80.86.1.2.59,16.63-5.89,36.27-8.63,20.77-3.92,40.87,9.34,48.29,14.29-9.95-4.48-19.22-10.55-29.91-11.88,16.53,4,31,15,44.87,24.89,8.38,5.57,16.28,11.8,24.46,17.62,1.21-.49-68.23-48.86-74.86-38.09.07-.1-8.33-1.65,0-1.3,8.6-1.21,33,8.68,89.54,57.92-1.3,1.63,22.32,8.75,54.33,30.46L259.4,452c2.76.1-2.42,3.79,6.92,1l1-4.11,4.33-17.4c1.92-12.32,4.29-25.82,4.54-40.5,1.56-29.34-1-63-3.47-100.43-1.5-37.43-4.81-79.21-2.56-124.21-.64-22.72,4.68-45.31,7.29-70.14a146.88,146.88,0,0,0-.82-38.7L274,47.64l-.69-2.49c-15.18-8-5.65-1.75-9.69-3.35l-5,1.65c-7,1.82-13,5.4-19.36,8.5-24.19,14.21-44.75,33.8-63.45,55.95-18.55,24-32.8,38.76-62.29,38.31C87.64,142.83,36,161,23.31,196.78,6.46,229.48,1.33,264.39,2.46,300.68Z" fill="#e6e4e3"/><path d="M308,151.32s-5.82,4.44,1.6-4.78l5.28-7.83,3-6.41,4.71-5.08c.91,1.08,2.19-1.18,47.93,26.46-.87-.81,23.16,12.32,33.11,42.62,0-1,17.84,48.27,16.31,101.12-.72,58.56-50.71,101.14-58.27,101-.34.3,29.13-18.06,44.52-50.22,16.83-31.46,14.17-68.55,12.54-72,.42-.4,2.57,32.3-10.47,63.07-12.64,31.31-41,52.65-46,52.93-.05.52,25.48-17.13,39.18-46,15-28.49,12.56-62.34,9.66-66.85.22-.27,1.4,27.54-9.53,53.88-10,27.2-34.28,46-40.11,48.1-.05.15,15.62-12.2,17.74-17.27a37.87,37.87,0,0,1-6.87,6.13c3.7-3.25,6-7.56,9-11.39l5.69-6.4c0,.17-15.45,17.22-18.46,16.38-1.31-.94-2.36,11,17.89-23.78-.87.39,17-20.18,14.71-63.23C395.48,241.13,387.57,170.77,308,151.32Z" fill="#e6e4e3"/><path d="M371.8,69.08c-.05,0-5.32,5.13.29-5.23L375.52,55l.71-7.46L380,41.76c-3,2.91,16.28-7.52,72.41,57,.08-.29,23.78,25.33,39.74,67.76-3.1-1,38.64,77.84,9.43,165.43C476.1,417,395.7,470.7,382.06,471c0,.82,49.79-23.11,80.87-67.39,33.43-42.2,47-97.7,45.88-104.56.5-.08-9,50.56-39.3,92.17-28.16,43.22-75.34,71.92-83.41,72.49.07.81,44-22.2,72.56-63,30.6-39.06,43.56-90.33,41.57-99,.57-.05-8.67,43.19-34.79,80.4-24.49,38.46-64.73,66.08-74.8,68.5.1.37,27.54-16.76,32.5-24.19a138.26,138.26,0,0,1-12,8.92c6.31-4.88,11.9-10.62,17.59-16.19l10.12-9.53c.25.42-28,25.2-31.86,24.41-1.38-1.41-8.4,15.59,35.34-34.84-1.6-.05,32.27-28.16,47.45-96.53,7.19-33.93-.1-76.88-18-121C453.85,139,421.47,88.7,371.8,69.08Z" fill="#e6e4e3"/></svg>